<svg width="52" height="60" viewBox="0 0 52 60" fill="none" xmlns="http://www.w3.org/2000/svg">
<path d="M38.198 13.0469C38.198 12.7461 37.9519 12.5 37.6511 12.5H11.4011C11.1003 12.5 10.8542 12.7461 10.8542 13.0469V16.3281C10.8542 16.6289 11.1003 16.875 11.4011 16.875H37.6511C37.9519 16.875 38.198 16.6289 38.198 16.3281V13.0469ZM37.6511 22.3437H11.4011C11.1003 22.3437 10.8542 22.5898 10.8542 22.8906V26.1719C10.8542 26.4727 11.1003 26.7187 11.4011 26.7187H37.6511C37.9519 26.7187 38.198 26.4727 38.198 26.1719V22.8906C38.198 22.5898 37.9519 22.3437 37.6511 22.3437ZM23.9792 32.1875H11.4011C11.1003 32.1875 10.8542 32.4336 10.8542 32.7344V36.0156C10.8542 36.3164 11.1003 36.5625 11.4011 36.5625H23.9792C24.28 36.5625 24.5261 36.3164 24.5261 36.0156V32.7344C24.5261 32.4336 24.28 32.1875 23.9792 32.1875ZM20.698 53.2422H5.3855V5.11719H43.6668V28.6328C43.6668 28.9336 43.9128 29.1797 44.2136 29.1797H48.0418C48.3425 29.1797 48.5886 28.9336 48.5886 28.6328V2.38281C48.5886 1.17285 47.6111 0.195312 46.4011 0.195312H2.65112C1.44116 0.195312 0.463623 1.17285 0.463623 2.38281V55.9766C0.463623 57.1865 1.44116 58.1641 2.65112 58.1641H20.698C20.9988 58.1641 21.2449 57.918 21.2449 57.6172V53.7891C21.2449 53.4883 20.9988 53.2422 20.698 53.2422ZM45.0886 48.1562C47.071 46.3584 48.3152 43.7607 48.3152 40.8691C48.3152 35.4346 43.906 31.0254 38.4714 31.0254C33.0369 31.0254 28.6277 35.4346 28.6277 40.8691C28.6277 43.7607 29.8718 46.3584 31.8543 48.1562C27.9578 50.3779 25.2781 54.4932 25.073 59.2373C25.0593 59.5449 25.3123 59.8047 25.6199 59.8047H28.908C29.1951 59.8047 29.4343 59.5791 29.4548 59.2852C29.7214 54.5547 33.6658 50.7812 38.4714 50.7812C43.2771 50.7812 47.2214 54.5547 47.488 59.2852C47.5017 59.5723 47.741 59.8047 48.0349 59.8047H51.323C51.6375 59.8047 51.8835 59.5449 51.8699 59.2373C51.6716 54.4863 48.9851 50.3779 45.0886 48.1562ZM38.4714 35.4004C41.4929 35.4004 43.9402 37.8477 43.9402 40.8691C43.9402 43.8906 41.4929 46.3379 38.4714 46.3379C35.45 46.3379 33.0027 43.8906 33.0027 40.8691C33.0027 37.8477 35.45 35.4004 38.4714 35.4004Z" fill="#4F00FF"/>
</svg>
